<svg width="16" height="18" viewBox="0 0 16 18" fill="none" xmlns="http://www.w3.org/2000/svg">
<path d="M15.6309 7.32177L8.5385 0.342963C8.30794 0.116087 8.0043 -0.00669442 7.69107 0.000281799C7.37784 0.00725802 7.07925 0.143452 6.85771 0.380397L0.33475 7.35702L0 7.71501V18H6.28571V11.5827H9.71429V18H16V7.68495L15.6309 7.32177ZM7.71564 1.22236C7.72571 1.22236 7.7195 1.22469 7.71518 1.22923C7.71071 1.22469 7.70557 1.22236 7.71564 1.22236ZM14.8571 16.7777H10.8571V11.5827C10.8571 11.2586 10.7367 10.9477 10.5224 10.7184C10.3081 10.4892 10.0174 10.3604 9.71429 10.3604H6.28571C5.98261 10.3604 5.69192 10.4892 5.47759 10.7184C5.26327 10.9477 5.14286 11.2586 5.14286 11.5827V16.7777H1.14286V8.22133L7.71564 1.2447L7.7165 1.24337L14.8571 8.22133V16.7777Z" fill="black"/>
</svg>
