<svg width="39" height="39" viewBox="0 0 39 39" fill="none" xmlns="http://www.w3.org/2000/svg">
<path d="M19.5044 9.49877C13.9708 9.49877 9.50747 13.9621 9.50747 19.4956C9.50747 25.0292 13.9708 29.4925 19.5044 29.4925C25.0379 29.4925 29.5012 25.0292 29.5012 19.4956C29.5012 13.9621 25.0379 9.49877 19.5044 9.49877ZM19.5044 25.9949C15.9284 25.9949 13.0051 23.0803 13.0051 19.4956C13.0051 15.911 15.9197 12.9964 19.5044 12.9964C23.089 12.9964 26.0036 15.911 26.0036 19.4956C26.0036 23.0803 23.0803 25.9949 19.5044 25.9949ZM32.2419 9.08985C32.2419 10.3862 31.1978 11.4216 29.9102 11.4216C28.6138 11.4216 27.5784 10.3775 27.5784 9.08985C27.5784 7.80218 28.6225 6.75811 29.9102 6.75811C31.1978 6.75811 32.2419 7.80218 32.2419 9.08985ZM38.863 11.4564C38.7151 8.33291 38.0016 5.56615 35.7134 3.28661C33.4339 1.00708 30.6671 0.293642 27.5436 0.137033C24.3244 -0.0456776 14.6756 -0.0456776 11.4564 0.137033C8.34161 0.284941 5.57485 0.998382 3.28661 3.27791C0.998383 5.55745 0.293642 8.3242 0.137033 11.4477C-0.0456776 14.6669 -0.0456776 24.3157 0.137033 27.5349C0.284941 30.6584 0.998383 33.4252 3.28661 35.7047C5.57485 37.9842 8.33291 38.6977 11.4564 38.8543C14.6756 39.037 24.3244 39.037 27.5436 38.8543C30.6671 38.7064 33.4339 37.9929 35.7134 35.7047C37.9929 33.4252 38.7064 30.6584 38.863 27.5349C39.0457 24.3157 39.0457 14.6756 38.863 11.4564ZM34.7041 30.989C34.0255 32.6943 32.7117 34.0081 30.9977 34.6954C28.4311 35.7134 22.3407 35.4785 19.5044 35.4785C16.668 35.4785 10.5689 35.7047 8.01099 34.6954C6.30569 34.0168 4.99191 32.703 4.30457 30.989C3.28661 28.4224 3.52153 22.332 3.52153 19.4956C3.52153 16.6593 3.29532 10.5602 4.30457 8.00229C4.98321 6.29699 6.29699 4.98321 8.01099 4.29587C10.5776 3.27791 16.668 3.51283 19.5044 3.51283C22.3407 3.51283 28.4398 3.28661 30.9977 4.29587C32.703 4.97451 34.0168 6.28829 34.7041 8.00229C35.7221 10.5689 35.4872 16.6593 35.4872 19.4956C35.4872 22.332 35.7221 28.4311 34.7041 30.989Z" fill="black"/>
</svg>
