<svg width="153" height="113" viewBox="0 0 153 113" fill="none" xmlns="http://www.w3.org/2000/svg">
<path d="M19.4189 66.506C37.8451 58.5256 53.6895 46.5148 69.5055 35.1177C81.9362 26.1601 94.8889 17.2546 108.276 9.30911C110.918 7.74131 114.79 4.70308 117.843 5.61709C120.869 6.52282 122.186 9.54924 124.413 11.2241C129.899 15.3488 134.576 20.5533 138.807 25.5799C143.465 31.1132 134.38 35.1201 128.444 39.4706C121.701 44.4122 115.204 49.4713 107.999 53.9335C101.15 58.175 95.2805 63.7319 88.8726 68.4245C79.1067 75.5763 69.83 83.0996 60.0881 90.2559C54.2888 94.516 47.8521 98.1316 42.2198 102.513C40.2463 104.048 38.3266 106.021 36.1269 107.345C34.3603 108.407 32.7477 105.001 32.2907 104.372C28.6639 99.3779 22.2537 96.28 18.7633 91.0322C16.5687 87.7326 15.4299 83.5334 12.6322 80.5844C11.2967 79.1766 7.89245 76.0401 10.026 73.6529C12.2044 71.2155 17.4661 69.7062 20.5142 67.84C22.8902 66.3853 25.7827 64.5927 28.3901 63.5038C30.2851 62.7125 32.2328 61.4241 33.9795 60.4119C38.5765 57.748 33.9558 59.1017 30.9677 60.1952" stroke="#2A7347" stroke-linecap="round" stroke-linejoin="round"/>
<path d="M20.2659 76.8181C29.9112 81.1696 38.0745 87.9359 45.03 94.6978C45.2062 94.8691 47.0175 95.8202 46.642 96.2569C45.9172 97.1001 39.6932 94.063 39.1015 93.7561" stroke="#2A7347" stroke-linecap="round" stroke-linejoin="round"/>
<path d="M31.992 68.4485C40.199 69.7087 44.6546 73.0101 50.8716 76.425C53.6409 77.9462 56.4966 79.2902 58.8981 81.1482C60.0258 82.0207 60.7282 83.2329 61.7443 84.19C63.1371 85.5017 56.9754 82.9224 56.2482 82.6268" stroke="#2A7347" stroke-linecap="round" stroke-linejoin="round"/>
<path d="M45.3974 61.6108C50.639 65.4315 55.922 69.1901 61.3805 72.8226C63.4542 74.2025 65.8664 75.4278 67.5733 77.1126C70.6032 80.1035 66.6283 76.226 65.2367 75.1533" stroke="#2A7347" stroke-linecap="round" stroke-linejoin="round"/>
<path d="M54.4713 56.8293C58.5371 58.6212 62.8116 60.3306 66.07 62.9269C67.4067 63.992 68.4446 65.2908 69.9026 66.2596C71.6988 67.4531 73.2049 68.8932 75.0209 70.0476C77.6068 71.6914 77.9502 72.2047 74.8997 70.1257" stroke="#2A7347" stroke-linecap="round" stroke-linejoin="round"/>
<path d="M66.3438 49.6389C70.713 52.2974 74.7097 55.0329 78.1631 58.4279C79.6926 59.9315 80.827 61.7183 82.9095 62.7983C84.8174 63.7877 86.2361 64.0033 84.0928 62.318" stroke="#2A7347" stroke-linecap="round" stroke-linejoin="round"/>
<path d="M77.8348 42.3604C81.7001 44.5939 85.5432 46.6075 88.415 49.6549C89.7297 51.05 90.6742 52.6993 92.1929 53.9613C95.277 56.5238 93.0667 55.2851 90.814 53.5587" stroke="#2A7347" stroke-linecap="round" stroke-linejoin="round"/>
<path d="M88.5593 34.905C93.817 39.031 97.9574 44.0271 103.235 48.0956C106.789 50.8351 101.786 46.3893 100.979 45.5928" stroke="#2A7347" stroke-linecap="round" stroke-linejoin="round"/>
<path d="M101.169 28.6476C106.54 26.5774 112.156 24.1735 115.582 19.9002C116.527 18.7218 117.665 17.6705 118.19 16.3862C118.91 14.6225 118.7 15.371 116.903 16.6202" stroke="#2A7347" stroke-linecap="round" stroke-linejoin="round"/>
<path d="M108.41 33.5611C112.954 30.2467 118.021 26.618 121.624 22.5861C123.422 20.5751 126.624 18.0387 122.231 21.0927" stroke="#2A7347" stroke-linecap="round" stroke-linejoin="round"/>
<path d="M120.273 38.776C124.493 35.2905 128.27 32.0608 132.223 28.4534C133.5 27.2879 137.068 25.6207 132.916 26.7997" stroke="#2A7347" stroke-linecap="round" stroke-linejoin="round"/>
<path d="M117.625 37.4021C121.921 34.4592 126.795 31.0433 130.411 27.4739C131.376 26.5217 132.17 25.4837 133.072 24.5025C134.583 22.8589 134.573 23.3734 132.654 23.685" stroke="#2A7347" stroke-linecap="round" stroke-linejoin="round"/>
<path d="M29.7457 81.2926C49.9743 73.5262 57.5825 56.2779 74.8307 45.4751C76.9289 44.1609 78.6925 42.7462 81.0455 41.7637C82.6189 41.1067 84.4924 40.7014 85.9584 39.905C86.8526 39.4192 94.3953 34.7007 89.3538 36.806" stroke="#2A7347" stroke-linecap="round" stroke-linejoin="round"/>
<path d="M21.5909 77.505C24.0982 75.2434 26.3128 73.3021 29.2995 71.5714C29.7893 71.2875 30.487 71.1899 30.9115 70.8293C31.7525 70.1151 33.0208 69.0678 33.4461 68.2C35.1209 64.7823 40.4239 64.9598 43.5804 63.0585C46.5832 61.2499 49.4875 59.4299 52.5402 57.6359C55.9035 55.6594 57.5817 54.0291 60.4239 51.6153C63.0346 49.3982 65.5832 47.1629 68.3079 45.0434C70.537 43.3095 73.8616 41.6274 75.4534 39.5103C77.2499 37.121 81.2932 34.2254 84.4604 34.3848C85.5484 34.4396 93.0781 37.5584 88.1473 35.5736" stroke="#2A7347" stroke-linecap="round" stroke-linejoin="round"/>
<path d="M37.5468 84.2354C52.9856 77.0052 63.2361 63.1375 74.6695 52.363C78.8807 48.3944 84.4189 45.5354 88.7867 41.6173C90.655 39.9414 94.4783 38.0123 90.3531 38.3725" stroke="#2A7347" stroke-linecap="round" stroke-linejoin="round"/>
<path d="M42.0509 87.5636C56.1954 80.1029 66.5859 67.512 77.6934 57.3014C82.7466 52.6561 87.6648 47.933 92.7651 43.3184C95.0905 41.2146 98.774 39.7196 93.9735 42.0698" stroke="#2A7347" stroke-linecap="round" stroke-linejoin="round"/>
<path d="M46.0511 93.8301C55.2773 86.832 63.0202 79.4596 70.9355 71.588C75.7484 66.8017 80.1064 61.5068 85.5495 57.1073C88.6726 54.583 91.2348 51.7158 94.13 49.0733C95.2963 48.0088 96.1808 46.8069 97.3734 45.7483C100.06 43.364 98.109 45.4823 96.2961 46.8045" stroke="#2A7347" stroke-linecap="round" stroke-linejoin="round"/>
<path d="M47.4929 96.4528C52.0867 92.9561 58.5455 89.4255 61.9509 85.0963C63.1873 83.5246 66.2315 79.7251 68.0908 78.674C70.5487 77.2846 72.0602 74.6298 73.975 72.8821C75.9691 71.0621 77.9202 69.2857 80.0454 67.5361C82.0384 65.8954 83.0438 63.2178 85.4143 61.7527C88.055 60.1207 89.6004 57.8003 91.8041 55.9288C93.7114 54.309 97.1224 52.5143 99.3678 51.2132C100.612 50.4922 101.552 49.5706 102.921 48.9989C105.696 47.8401 103.918 48.4623 101.538 48.5846" stroke="#2A7347" stroke-linecap="round" stroke-linejoin="round"/>
<path d="M100.638 29.8613C103.87 30.2952 107.921 30.4449 110.728 31.6558C112.539 32.4372 114.094 33.243 110.796 31.82" stroke="#2A7347" stroke-linecap="round" stroke-linejoin="round"/>
<path d="M104.882 25.1128C109.495 25.7227 112.684 26.5669 116.238 28.2804C118.561 29.4008 118.215 29.0666 115.776 28.0045" stroke="#2A7347" stroke-linecap="round" stroke-linejoin="round"/>
<path d="M111.452 20.1367C115.244 21.6475 118.871 23.4198 122.844 24.6808C125.181 25.4225 123.881 25.4627 122.08 24.8759" stroke="#2A7347" stroke-linecap="round" stroke-linejoin="round"/>
<path d="M115.372 16.2673C119.422 17.4869 123.137 18.7273 126.776 20.3794C128.435 21.1327 126.78 21.3242 125.529 20.7071" stroke="#2A7347" stroke-linecap="round" stroke-linejoin="round"/>
<path d="M103.024 28.1208C106.815 24.7608 110.588 21.5623 114.101 18.1486C115.098 17.1787 121.095 11.743 118.435 14.4919" stroke="#2A7347" stroke-linecap="round" stroke-linejoin="round"/>
<path d="M105.524 33.2778C110.28 29.9388 117.08 25.4499 119.214 20.8641C119.842 19.5145 120.941 18.1274 122.377 17.1178C123.834 16.0938 125.264 15.5688 123.058 17.2746" stroke="#2A7347" stroke-linecap="round" stroke-linejoin="round"/>
<path d="M102.136 33.452C107.327 29.1944 111.642 26.2659 115.018 21.2656C115.894 19.967 116.832 18.8735 118.089 17.8057C119.422 16.674 121.246 15.5676 118.698 17.6066" stroke="#2A7347" stroke-linecap="round" stroke-linejoin="round"/>
<path d="M118.628 34.0066C120.533 34.8925 122.456 35.7006 124.472 36.4029C125.305 36.6929 124.318 36.081 123.957 35.9979" stroke="#2A7347" stroke-linecap="round" stroke-linejoin="round"/>
<path d="M123.58 28.4663C123.705 28.5505 130.943 33.4906 129.703 32.3584" stroke="#2A7347" stroke-linecap="round" stroke-linejoin="round"/>
<path d="M128.793 26.0408C130.364 27.2825 135.207 30.8937 133.473 29.7913" stroke="#2A7347" stroke-linecap="round" stroke-linejoin="round"/>
<path d="M115.829 36.4157C119.205 33.9468 126.527 29.0039 128.721 25.4514C129.585 24.0514 132.787 22.0832 129.738 24.1586" stroke="#2A7347" stroke-linecap="round" stroke-linejoin="round"/>
<path d="M116.093 37.0493C116.346 37.208 121.235 41.6692 122.865 39.1821C123.696 37.9127 124.78 36.2592 126.424 35.4634C129.309 34.0673 130.438 30.3146 133.356 29.0963C136.666 27.7141 136.698 25.8432 133.91 25.4062C132.814 25.2345 134.02 23.368 132.812 23.6049C131.706 23.8217 131.186 23.5488 129.944 23.8243" stroke="#2A7347" stroke-linecap="round" stroke-linejoin="round"/>
<path d="M100.373 29.228C101.827 32.0658 102.013 33.1223 104.97 34.1154C105.768 34.3835 106.965 33.8252 107.57 34.0357C108.766 34.4523 111.304 34.2575 112.425 33.2348C114.678 31.1782 115.597 29.8942 118.75 28.4989C120.739 27.6187 122.532 25.7765 123.638 24.2804C124.854 22.6359 126.763 21.3164 128.033 19.6617C128.573 18.9571 125.427 17.5099 125.594 16.3532C125.641 16.0253 121.558 16.3462 120.925 16.1259C120.158 15.8589 119.861 15.4191 119.584 14.7565C119.18 13.7888 117.942 15.1313 116.374 15.3531" stroke="#2A7347" stroke-linecap="round" stroke-linejoin="round"/>
<path d="M25.8341 72.7563C30.2352 73.7884 33.973 75.2761 37.8088 76.9469C41.1391 78.3975 45.0803 78.9949 48.3967 80.3937C50.7577 81.3896 52.9521 83.9219 54.5381 85.5733C55.0666 86.1236 55.4419 86.6481 55.7738 87.2896C56.5353 88.7615 56.1086 85.0888 56.0702 84.6855" stroke="#2A7347" stroke-linecap="round" stroke-linejoin="round"/>
<path d="M75.4796 40.8633C76.5826 41.8376 80.7781 47.3699 80.514 42.9776" stroke="#2A7347" stroke-linecap="round" stroke-linejoin="round"/>
</svg>
