<svg width="41" height="40" viewBox="0 0 41 40" fill="none" xmlns="http://www.w3.org/2000/svg">
<path fill-rule="evenodd" clip-rule="evenodd" d="M34.7223 34.1007H28.7079V23.6547C28.7079 20.5755 27.3841 19.6259 25.7151 19.6259C23.9309 19.6259 22.1755 20.9784 22.1755 23.741V34.1007H16.1611V14.9928H21.9453V17.6403H22.0316C22.6072 16.4892 24.6216 14.4748 27.7295 14.4748C31.0964 14.4748 34.7223 16.4317 34.7223 22.2734V34.1007ZM9.54242 12.3165C7.61436 12.3165 6.08918 10.8777 6.08918 8.86331C6.08918 6.8777 7.61436 5.41007 9.54242 5.41007C11.4417 5.41007 12.9957 6.8777 12.9957 8.86331C12.9957 10.8777 11.4417 12.3165 9.54242 12.3165ZM6.52083 34.0719H12.564V14.964H6.52083V34.0719ZM37.6863 0H3.58558C1.94529 0 0.621552 1.32374 0.621552 2.96403V37.0648C0.621552 38.6763 1.94529 40 3.58558 40H37.6863C39.2978 40 40.6216 38.6763 40.6216 37.0648V2.96403C40.6216 1.32374 39.2978 0 37.6863 0Z" fill="black"/>
</svg>
