<svg width="40" height="40" viewBox="0 0 40 40" fill="none" xmlns="http://www.w3.org/2000/svg">
<path d="M35.3764 0H4.24517C1.90148 0 0 1.90148 0 4.24517V35.3764C0 37.7201 1.90148 39.6216 4.24517 39.6216H35.3764C37.7201 39.6216 39.6216 37.7201 39.6216 35.3764V4.24517C39.6216 1.90148 37.7201 0 35.3764 0ZM31.0516 14.0444C31.0693 14.2921 31.0693 14.5485 31.0693 14.7962C31.0693 22.464 25.2322 31.2993 14.5662 31.2993C11.2762 31.2993 8.22501 30.3441 5.66022 28.6991C6.12896 28.7522 6.58001 28.7698 7.05759 28.7698C9.77273 28.7698 12.2668 27.8501 14.2567 26.2935C11.7096 26.2404 9.56931 24.5689 8.83525 22.2694C9.72851 22.4021 10.5333 22.4021 11.4531 22.1633C8.79988 21.6238 6.80995 19.289 6.80995 16.4677V16.397C7.57939 16.8303 8.48149 17.0956 9.42781 17.131C8.63222 16.6018 7.98001 15.8839 7.5294 15.0413C7.07878 14.1987 6.84377 13.2577 6.84533 12.3021C6.84533 11.2232 7.12834 10.2326 7.63246 9.37474C10.4891 12.8947 14.7785 15.1942 19.5897 15.4418C18.7672 11.5062 21.7123 8.31345 25.2499 8.31345C26.9214 8.31345 28.4249 9.01213 29.4862 10.1442C30.7951 9.89654 32.051 9.41012 33.1654 8.74681C32.732 10.0911 31.8211 11.2232 30.6183 11.9395C31.7857 11.8157 32.9177 11.4885 33.9613 11.0374C33.1742 12.196 32.1837 13.2219 31.0516 14.0444Z" fill="black"/>
</svg>
