<svg width="234" height="239" viewBox="0 0 234 239" fill="none" xmlns="http://www.w3.org/2000/svg">
<path d="M143.145 135.125H165.604C174.063 135.139 182.296 137.864 189.094 142.898C195.892 147.933 200.898 155.014 203.378 163.101L215.51 202.668C215.945 204.081 216.043 205.577 215.796 207.034C215.548 208.492 214.962 209.872 214.084 211.062C213.206 212.252 212.061 213.22 210.742 213.887C209.422 214.554 207.964 214.902 206.485 214.902H102.187C100.708 214.902 99.25 214.554 97.9302 213.887C96.6104 213.22 95.4655 212.252 94.5877 211.062C93.7098 209.872 93.1236 208.492 92.876 207.034C92.6284 205.577 92.7265 204.081 93.1622 202.668L105.294 163.101C107.778 155.001 112.795 147.911 119.609 142.875C126.423 137.839 134.673 135.123 143.145 135.125Z" fill="#2A7347"/>
<path d="M206.524 216.192H102.225C100.542 216.197 98.8802 215.806 97.3749 215.051C95.8696 214.297 94.5626 213.199 93.5591 211.847C92.5556 210.495 91.8837 208.926 91.5976 207.267C91.3115 205.607 91.419 203.904 91.9117 202.294L104.108 162.727C106.642 154.349 111.812 147.011 118.85 141.806C125.888 136.6 134.418 133.805 143.171 133.836H165.604C174.357 133.805 182.887 136.6 189.925 141.806C196.963 147.011 202.133 154.349 204.667 162.727L216.799 202.294C217.292 203.904 217.399 205.607 217.113 207.267C216.827 208.926 216.155 210.495 215.151 211.847C214.148 213.199 212.841 214.297 211.336 215.051C209.83 215.806 208.169 216.197 206.485 216.192H206.524ZM143.145 136.414C134.943 136.386 126.95 139.005 120.356 143.883C113.762 148.761 108.918 155.636 106.544 163.488L94.4128 203.054C94.0406 204.276 93.9596 205.569 94.1762 206.828C94.3929 208.087 94.9012 209.278 95.6604 210.305C96.4197 211.332 97.4089 212.168 98.5489 212.745C99.6889 213.321 100.948 213.623 102.225 213.626H206.524C207.801 213.623 209.06 213.321 210.2 212.745C211.34 212.168 212.33 211.332 213.089 210.305C213.848 209.278 214.356 208.087 214.573 206.828C214.79 205.569 214.709 204.276 214.336 203.054L202.205 163.488C199.832 155.636 194.988 148.761 188.393 143.883C181.799 139.005 173.806 136.386 165.604 136.414H143.145Z" fill="#093F68"/>
<path d="M147.516 130.665H161.233V138.555C161.233 139.32 161.083 140.078 160.79 140.785C160.497 141.492 160.068 142.134 159.527 142.675C158.985 143.216 158.343 143.645 157.636 143.938C156.929 144.231 156.171 144.382 155.406 144.382H153.33C151.785 144.382 150.303 143.768 149.21 142.675C148.117 141.582 147.503 140.1 147.503 138.555V130.665H147.516Z" fill="#FFC9B0"/>
<path d="M155.406 145.658H153.343C151.458 145.658 149.65 144.91 148.316 143.579C146.981 142.247 146.23 140.44 146.227 138.555V130.665C146.227 130.323 146.363 129.995 146.604 129.753C146.846 129.511 147.174 129.375 147.516 129.375H161.233C161.575 129.375 161.903 129.511 162.145 129.753C162.387 129.995 162.522 130.323 162.522 130.665V138.555C162.519 140.44 161.768 142.247 160.434 143.579C159.099 144.91 157.291 145.658 155.406 145.658ZM148.805 131.954V138.555C148.809 139.756 149.288 140.907 150.139 141.755C150.99 142.604 152.142 143.08 153.343 143.08H155.406C156.607 143.08 157.76 142.604 158.61 141.755C159.461 140.907 159.941 139.756 159.944 138.555V131.954H148.805Z" fill="#093F68"/>
<path d="M107.034 92.6196C100.666 90.2087 101.052 85.3355 100.098 79.0956C99.1428 72.9131 98.5531 66.6796 98.332 60.4277C98.0871 53.324 98.332 46.027 101.039 39.4391C104.507 30.9689 111.353 25.5026 120.494 26.2503C120.223 13.7706 127.713 2.06447 140.98 1.3554C162.239 0.220882 174.499 23.053 186.373 21.3513C198.247 19.6495 201.431 14.3637 201.431 14.3637C203.426 18.182 204.246 22.5055 203.787 26.7891C203.328 31.0726 201.611 35.1244 198.853 38.4335C198.853 38.4335 208.226 35.7003 209.36 48.1671C210.495 60.6339 203.03 93.767 203.03 93.767L194.56 92.3231C190.989 91.6913 186.528 92.568 182.957 92.684L156.386 93.5091C143.055 93.883 121.499 98.0859 107.034 92.6196Z" fill="#725858"/>
<path d="M126.192 96.6806C119.205 96.6806 112.333 95.9973 106.57 93.8185C100.395 91.4721 99.8275 87.0114 99.17 81.8416C99.0669 80.9822 98.9508 80.1227 98.8219 79.2632C97.861 73.0292 97.267 66.7441 97.0428 60.4405C96.8107 53.7752 96.9654 45.9883 99.8533 38.9362C103.528 29.9117 110.386 24.8708 118.805 24.8708H119.205C119.488 12.8681 126.85 0.788109 140.915 0.0403586C153.279 -0.604253 162.832 6.60251 170.464 12.3911C176.369 16.8647 181.474 20.7195 186.18 20.0491C197.203 18.4763 200.361 13.719 200.361 13.6675C200.478 13.4798 200.642 13.3255 200.836 13.2194C201.03 13.1132 201.249 13.0589 201.47 13.0615C201.694 13.0616 201.914 13.1198 202.108 13.2306C202.302 13.3414 202.465 13.5008 202.579 13.6932C202.643 13.8093 209.102 25.1931 201.599 36.8993C203.2 36.9717 204.752 37.4798 206.085 38.369C208.664 40.1739 210.275 43.4228 210.688 48.0511C211.835 60.5823 204.654 92.684 204.345 94.0506C204.271 94.3729 204.075 94.6544 203.799 94.8368C203.523 95.0191 203.188 95.0885 202.862 95.0304L194.353 93.6123C191.836 93.3327 189.294 93.3674 186.786 93.7154C185.496 93.8443 184.207 93.9603 182.918 93.999L156.347 94.8241C153.034 94.9273 149.14 95.2754 145.028 95.6363C139.213 96.1005 132.651 96.6806 126.192 96.6806ZM107.486 91.4077C118.031 95.4043 132.896 94.0764 144.873 93.0063C149.024 92.6324 152.956 92.2843 156.347 92.1812L182.918 91.3561C184.04 91.3561 185.264 91.2014 186.554 91.0854C189.289 90.7062 192.062 90.6802 194.805 91.008C195.256 91.008 196.726 91.3303 202.089 92.2972C203.378 86.2637 209.102 59.0997 208.122 48.296C207.774 44.4283 206.614 41.8499 204.654 40.5607C203.858 40.0674 202.971 39.738 202.046 39.5919C201.12 39.4458 200.175 39.4859 199.265 39.7098C199.002 39.7854 198.721 39.7749 198.463 39.6799C198.206 39.5848 197.986 39.4101 197.834 39.1812C197.684 38.9523 197.61 38.6814 197.624 38.4079C197.638 38.1344 197.739 37.8724 197.912 37.6599C200.328 34.8069 201.908 31.3411 202.476 27.646C203.045 23.9509 202.581 20.1705 201.135 16.7229C199.162 18.5794 194.869 21.4802 186.579 22.6662C180.804 23.4785 175.299 19.3272 168.93 14.5183C161.195 8.67816 152.492 2.07734 141.083 2.68327C128.113 3.36656 121.564 15.0727 121.809 26.2632C121.812 26.4443 121.777 26.624 121.706 26.7906C121.634 26.9572 121.529 27.107 121.396 27.2301C121.265 27.3546 121.108 27.45 120.937 27.51C120.766 27.57 120.584 27.5932 120.404 27.5782C112.359 26.9078 105.745 31.4459 102.264 39.9676C99.5697 46.5814 99.4279 54.0202 99.6857 60.4147C99.9032 66.6145 100.484 72.7963 101.426 78.928C101.568 79.8433 101.684 80.7071 101.787 81.5064C102.406 86.3797 102.819 89.6028 107.55 91.3948L107.486 91.4077Z" fill="#093F68"/>
<path d="M115.182 106.517C122.537 106.517 128.5 101.38 128.5 95.0432C128.5 88.7062 122.537 83.5691 115.182 83.5691C107.827 83.5691 101.865 88.7062 101.865 95.0432C101.865 101.38 107.827 106.517 115.182 106.517Z" fill="#FFC9B0"/>
<path d="M115.182 107.794C107.125 107.794 100.575 102.07 100.575 95.0304C100.575 87.9912 107.125 82.2542 115.182 82.2542C123.24 82.2542 129.802 87.9912 129.802 95.0304C129.802 102.07 123.24 107.794 115.182 107.794ZM115.182 84.8326C108.556 84.8326 103.154 89.4093 103.154 95.0304C103.154 100.651 108.556 105.215 115.182 105.215C121.809 105.215 127.224 100.651 127.224 95.0304C127.224 89.4093 121.822 84.8455 115.182 84.8455V84.8326Z" fill="#093F68"/>
<path d="M192.858 106.517C200.213 106.517 206.176 101.38 206.176 95.0432C206.176 88.7062 200.213 83.5691 192.858 83.5691C185.503 83.5691 179.54 88.7062 179.54 95.0432C179.54 101.38 185.503 106.517 192.858 106.517Z" fill="#FFC9B0"/>
<path d="M192.858 107.794C184.8 107.794 178.238 102.07 178.238 95.0304C178.238 87.9912 184.8 82.2542 192.858 82.2542C200.916 82.2542 207.465 87.9912 207.465 95.0304C207.465 102.07 200.916 107.794 192.858 107.794ZM192.858 84.8326C186.218 84.8326 180.817 89.4093 180.817 95.0304C180.817 100.651 186.218 105.215 192.858 105.215C199.497 105.215 204.886 100.651 204.886 95.0304C204.886 89.4093 199.51 84.8455 192.858 84.8455V84.8326Z" fill="#093F68"/>
<path d="M154.388 132.457C143.736 132.46 133.52 128.235 125.982 120.71C118.445 113.184 114.203 102.974 114.19 92.3231V63.1093C116.536 66.977 124.336 65.4299 135.771 45.8208C178.573 67.5055 194.56 55.0774 194.56 55.0774V92.3231C194.546 102.97 190.308 113.176 182.776 120.7C175.244 128.225 165.034 132.453 154.388 132.457Z" fill="#FFC9B0"/>
<path d="M154.388 133.746C143.398 133.739 132.859 129.375 125.082 121.61C117.305 113.845 112.924 103.313 112.9 92.3229V63.1091C112.897 62.8255 112.988 62.5489 113.159 62.3222C113.329 62.0954 113.569 61.9312 113.842 61.8548C114.115 61.7785 114.406 61.7943 114.669 61.8998C114.932 62.0054 115.154 62.1948 115.298 62.4387C115.496 62.7821 115.785 63.064 116.133 63.253C116.481 63.4419 116.875 63.5304 117.271 63.5087C118.844 63.5087 124.748 62.1292 134.637 45.1631C134.795 44.8706 135.061 44.6509 135.379 44.5499C135.696 44.449 136.04 44.4747 136.338 44.6216C177.697 65.5715 193.606 54.1232 193.76 54.0071C193.952 53.8597 194.181 53.7691 194.421 53.7456C194.662 53.7221 194.904 53.7666 195.121 53.8741C195.337 53.9817 195.519 54.1478 195.645 54.3537C195.772 54.5596 195.838 54.7969 195.836 55.0385V92.3229C195.812 103.306 191.437 113.832 183.668 121.596C175.899 129.36 165.371 133.729 154.388 133.746ZM115.492 65.7778V92.3229C115.492 102.639 119.59 112.532 126.884 119.826C134.178 127.121 144.072 131.219 154.388 131.219C164.703 131.219 174.597 127.121 181.891 119.826C189.185 112.532 193.283 102.639 193.283 92.3229V57.2947C187.714 59.8731 170.606 64.6174 136.287 47.5094C129.17 59.4606 122.453 66.0485 117.335 66.0872C116.701 66.118 116.068 66.0125 115.479 65.7778H115.492Z" fill="#093F68"/>
<path d="M180.172 205.414C179.83 205.414 179.502 205.278 179.26 205.036C179.019 204.794 178.883 204.466 178.883 204.124V156.965C178.883 156.623 179.019 156.295 179.26 156.053C179.502 155.811 179.83 155.675 180.172 155.675C180.514 155.675 180.842 155.811 181.084 156.053C181.325 156.295 181.461 156.623 181.461 156.965V204.124C181.461 204.466 181.325 204.794 181.084 205.036C180.842 205.278 180.514 205.414 180.172 205.414Z" fill="#093F68"/>
<path d="M128.603 205.414C128.261 205.414 127.933 205.278 127.691 205.036C127.45 204.794 127.314 204.466 127.314 204.124V156.965C127.314 156.623 127.45 156.295 127.691 156.053C127.933 155.811 128.261 155.675 128.603 155.675C128.945 155.675 129.273 155.811 129.515 156.053C129.756 156.295 129.892 156.623 129.892 156.965V204.124C129.892 204.466 129.756 204.794 129.515 205.036C129.273 205.278 128.945 205.414 128.603 205.414Z" fill="#093F68"/>
<path d="M154.284 99.6585C152.933 99.6488 151.584 99.5368 150.249 99.3233C149.907 99.2634 149.603 99.0702 149.404 98.7861C149.204 98.502 149.126 98.1504 149.185 97.8084C149.245 97.4665 149.439 97.1624 149.723 96.9629C150.007 96.7634 150.358 96.685 150.7 96.7448C152.729 97.064 154.795 97.064 156.824 96.7448C157.082 95.5587 155.535 91.1367 153.343 86.9725C153.268 86.8188 153.223 86.6516 153.213 86.4805C153.203 86.3095 153.226 86.1382 153.283 85.9765C153.34 85.8148 153.428 85.666 153.543 85.5388C153.658 85.4116 153.797 85.3086 153.952 85.2358C154.107 85.163 154.275 85.1218 154.446 85.1146C154.617 85.1075 154.788 85.1346 154.949 85.1942C155.109 85.2539 155.256 85.345 155.381 85.4622C155.506 85.5793 155.607 85.7202 155.677 85.8767C157.121 88.6485 160.357 95.3782 159.171 98.0211C159.038 98.337 158.834 98.6177 158.574 98.8414C158.315 99.0651 158.007 99.2256 157.675 99.3104C156.563 99.5656 155.425 99.6825 154.284 99.6585Z" fill="#093F68"/>
<path d="M145.363 68.7687H125.664C124.98 68.7687 124.324 68.497 123.84 68.0135C123.357 67.5299 123.085 66.8741 123.085 66.1903C123.085 65.5064 123.357 64.8506 123.84 64.367C124.324 63.8835 124.98 63.6118 125.664 63.6118H145.376C146.06 63.6118 146.715 63.8835 147.199 64.367C147.683 64.8506 147.954 65.5064 147.954 66.1903C147.954 66.8741 147.683 67.5299 147.199 68.0135C146.715 68.497 146.06 68.7687 145.376 68.7687H145.363Z" fill="#093F68"/>
<path d="M181.783 68.7687H162.084C161.4 68.7687 160.744 68.497 160.261 68.0135C159.777 67.5299 159.506 66.8741 159.506 66.1903C159.506 65.5064 159.777 64.8506 160.261 64.367C160.744 63.8835 161.4 63.6118 162.084 63.6118H181.783C182.467 63.6118 183.123 63.8835 183.607 64.367C184.09 64.8506 184.362 65.5064 184.362 66.1903C184.362 66.8741 184.09 67.5299 183.607 68.0135C183.123 68.497 182.467 68.7687 181.783 68.7687Z" fill="#093F68"/>
<path d="M123.949 75.8338H147.155C148.03 75.8338 148.87 76.1815 149.489 76.8004C150.108 77.4194 150.455 78.2589 150.455 79.1342V81.2872C150.455 84.238 149.283 87.0679 147.197 89.1545C145.11 91.241 142.28 92.4132 139.329 92.4132H131.762C128.811 92.4132 125.981 91.241 123.894 89.1545C121.808 87.0679 120.636 84.238 120.636 81.2872V79.1342C120.636 78.6997 120.721 78.2695 120.888 77.8682C121.055 77.4669 121.299 77.1025 121.607 76.7959C121.915 76.4892 122.28 76.2464 122.682 76.0813C123.084 75.9162 123.514 75.8321 123.949 75.8338Z" fill="white"/>
<path d="M139.342 93.7154H131.787C128.496 93.712 125.34 92.4029 123.012 90.0753C120.685 87.7478 119.376 84.5919 119.372 81.3002V79.1343C119.372 77.9193 119.854 76.7539 120.712 75.8935C121.57 75.0331 122.734 74.5481 123.949 74.5447H147.155C148.371 74.5481 149.537 75.0327 150.397 75.8927C151.257 76.7527 151.741 77.9181 151.745 79.1343V81.3002C151.741 84.5897 150.434 87.7436 148.109 90.0708C145.784 92.398 142.632 93.7086 139.342 93.7154ZM123.949 77.1231C123.685 77.1231 123.424 77.1752 123.181 77.2765C122.938 77.3777 122.717 77.526 122.531 77.713C122.346 77.8999 122.199 78.1217 122.099 78.3656C121.999 78.6096 121.949 78.8708 121.951 79.1343V81.3002C121.954 83.908 122.991 86.4081 124.835 88.2521C126.679 90.0961 129.18 91.1336 131.787 91.137H139.342C141.951 91.1336 144.453 90.0965 146.299 88.2529C148.145 86.4092 149.185 83.9092 149.192 81.3002V79.1343C149.192 78.6009 148.98 78.0894 148.603 77.7122C148.226 77.335 147.714 77.1231 147.181 77.1231H123.949Z" fill="#093F68"/>
<path d="M161.414 75.8338H184.62C185.495 75.8338 186.335 76.1815 186.954 76.8004C187.572 77.4194 187.92 78.2589 187.92 79.1342V81.2872C187.92 84.238 186.748 87.0679 184.661 89.1545C182.575 91.241 179.745 92.4132 176.794 92.4132H169.226C166.276 92.4132 163.446 91.241 161.359 89.1545C159.273 87.0679 158.1 84.238 158.1 81.2872V79.1342C158.1 78.6997 158.186 78.2695 158.353 77.8682C158.52 77.4669 158.764 77.1025 159.072 76.7959C159.38 76.4892 159.745 76.2464 160.147 76.0813C160.549 75.9162 160.979 75.8321 161.414 75.8338Z" fill="white"/>
<path d="M176.807 93.7154H169.252C165.958 93.7154 162.799 92.4078 160.469 90.0799C158.138 87.752 156.828 84.5941 156.824 81.3002V79.1343C156.828 77.9181 157.312 76.7527 158.172 75.8927C159.032 75.0327 160.198 74.5481 161.414 74.5447H184.62C185.835 74.5481 186.999 75.0331 187.857 75.8935C188.715 76.7539 189.197 77.9193 189.197 79.1343V81.3002C189.193 84.5874 187.888 87.7394 185.566 90.0662C183.244 92.3931 180.094 93.7052 176.807 93.7154ZM161.414 77.1231C160.88 77.1231 160.369 77.335 159.992 77.7122C159.614 78.0894 159.403 78.6009 159.403 79.1343V81.3002C159.409 83.9092 160.45 86.4092 162.296 88.2529C164.142 90.0965 166.643 91.1336 169.252 91.137H176.807C179.415 91.1336 181.915 90.0961 183.759 88.2521C185.603 86.4081 186.641 83.908 186.644 81.3002V79.1343C186.646 78.8708 186.595 78.6096 186.496 78.3656C186.396 78.1217 186.249 77.8999 186.063 77.713C185.877 77.526 185.657 77.3777 185.413 77.2765C185.17 77.1752 184.909 77.1231 184.646 77.1231H161.414Z" fill="#093F68"/>
<path d="M120.661 82.5892H113.132C112.79 82.5892 112.462 82.4534 112.221 82.2116C111.979 81.9698 111.843 81.6419 111.843 81.3C111.843 80.958 111.979 80.6301 112.221 80.3883C112.462 80.1466 112.79 80.0107 113.132 80.0107H120.623C120.965 80.0107 121.293 80.1466 121.534 80.3883C121.776 80.6301 121.912 80.958 121.912 81.3C121.912 81.6419 121.776 81.9698 121.534 82.2116C121.293 82.4534 120.965 82.5892 120.623 82.5892H120.661Z" fill="#093F68"/>
<path d="M195.797 82.5892H188.32C187.978 82.5892 187.65 82.4534 187.408 82.2116C187.167 81.9698 187.031 81.6419 187.031 81.3C187.031 80.958 187.167 80.6301 187.408 80.3883C187.65 80.1466 187.978 80.0107 188.32 80.0107H195.797C196.139 80.0107 196.467 80.1466 196.709 80.3883C196.951 80.6301 197.087 80.958 197.087 81.3C197.087 81.6419 196.951 81.9698 196.709 82.2116C196.467 82.4534 196.139 82.5892 195.797 82.5892Z" fill="#093F68"/>
<path d="M158.113 82.5892H150.52C150.178 82.5892 149.85 82.4534 149.608 82.2116C149.366 81.9698 149.231 81.6419 149.231 81.3C149.231 80.958 149.366 80.6301 149.608 80.3883C149.85 80.1466 150.178 80.0107 150.52 80.0107H158.152C158.494 80.0107 158.822 80.1466 159.064 80.3883C159.305 80.6301 159.441 80.958 159.441 81.3C159.441 81.6419 159.305 81.9698 159.064 82.2116C158.822 82.4534 158.494 82.5892 158.152 82.5892H158.113Z" fill="#093F68"/>
<path d="M153.524 112.087C148.924 112.105 144.36 111.27 140.064 109.625C139.745 109.501 139.487 109.256 139.348 108.943C139.209 108.63 139.2 108.275 139.323 107.955C139.446 107.635 139.691 107.378 140.004 107.239C140.317 107.1 140.673 107.091 140.993 107.214C149.231 110.174 158.242 110.174 166.48 107.214C166.637 107.148 166.805 107.115 166.975 107.115C167.144 107.114 167.312 107.147 167.469 107.212C167.626 107.277 167.768 107.372 167.889 107.491C168.009 107.611 168.104 107.753 168.169 107.91C168.235 108.066 168.268 108.234 168.269 108.404C168.269 108.574 168.236 108.742 168.171 108.898C168.106 109.055 168.011 109.198 167.892 109.318C167.772 109.438 167.63 109.534 167.473 109.599C163.012 111.264 158.286 112.107 153.524 112.087Z" fill="#093F68"/>
<path d="M189.725 194.584C189.424 194.59 189.129 194.49 188.894 194.302C188.658 194.113 188.496 193.848 188.436 193.553C188.402 193.387 188.401 193.216 188.433 193.049C188.466 192.883 188.53 192.725 188.624 192.584C188.717 192.442 188.837 192.321 188.978 192.226C189.118 192.131 189.276 192.065 189.442 192.031L203.7 189.118C204.042 189.049 204.397 189.119 204.687 189.313C204.978 189.506 205.179 189.807 205.247 190.149C205.316 190.491 205.246 190.846 205.052 191.136C204.859 191.426 204.558 191.628 204.216 191.696L189.957 194.597C189.88 194.603 189.802 194.599 189.725 194.584Z" fill="#093F68"/>
<path d="M119.024 194.584C118.939 194.598 118.852 194.598 118.766 194.584L104.507 191.593C104.338 191.56 104.177 191.493 104.034 191.397C103.89 191.301 103.767 191.177 103.671 191.034C103.576 190.89 103.509 190.729 103.475 190.559C103.442 190.39 103.442 190.216 103.476 190.046C103.51 189.877 103.577 189.716 103.673 189.573C103.769 189.429 103.892 189.306 104.036 189.21C104.18 189.115 104.341 189.048 104.51 189.014C104.679 188.981 104.854 188.981 105.023 189.015L119.282 191.929C119.448 191.963 119.606 192.029 119.746 192.123C119.886 192.218 120.006 192.34 120.1 192.481C120.193 192.622 120.258 192.781 120.29 192.947C120.322 193.113 120.321 193.284 120.288 193.45C120.25 193.76 120.101 194.046 119.869 194.255C119.637 194.463 119.336 194.58 119.024 194.584Z" fill="#093F68"/>
<path d="M117.98 167.562H190.615C192.249 167.563 193.817 168.212 194.972 169.367C196.128 170.523 196.777 172.091 196.777 173.725V216.089H111.843V173.725C111.843 172.095 112.489 170.531 113.639 169.377C114.789 168.222 116.35 167.569 117.98 167.562Z" fill="#F56132"/>
<path d="M196.777 217.378H111.843C111.501 217.378 111.173 217.242 110.931 217C110.69 216.758 110.554 216.43 110.554 216.089V173.725C110.554 171.748 111.339 169.853 112.736 168.455C114.134 167.058 116.029 166.273 118.006 166.273H190.615C192.591 166.273 194.486 167.058 195.884 168.455C197.281 169.853 198.066 171.748 198.066 173.725V216.089C198.066 216.43 197.931 216.758 197.689 217C197.447 217.242 197.119 217.378 196.777 217.378ZM113.132 214.799H195.514V173.725C195.51 172.433 194.996 171.196 194.083 170.282C193.169 169.369 191.932 168.855 190.64 168.851H117.98C116.688 168.855 115.451 169.369 114.538 170.282C113.624 171.196 113.11 172.433 113.107 173.725L113.132 214.799Z" fill="#093F68"/>
<path d="M107.692 216.089H200.916C200.916 217.737 200.261 219.317 199.096 220.483C197.93 221.648 196.35 222.303 194.701 222.303H113.906C112.258 222.303 110.677 221.648 109.512 220.483C108.346 219.317 107.692 217.737 107.692 216.089Z" fill="#F56132"/>
<path d="M194.689 223.617H113.906C111.917 223.614 110.01 222.822 108.604 221.416C107.198 220.01 106.406 218.103 106.403 216.114C106.403 215.772 106.538 215.444 106.78 215.203C107.022 214.961 107.35 214.825 107.692 214.825H200.903C201.245 214.825 201.573 214.961 201.814 215.203C202.056 215.444 202.192 215.772 202.192 216.114C202.189 218.103 201.397 220.01 199.991 221.416C198.584 222.822 196.678 223.614 194.689 223.617ZM109.149 217.378C109.434 218.421 110.054 219.342 110.913 219.999C111.773 220.656 112.824 221.012 113.906 221.013H194.689C195.781 221.026 196.848 220.676 197.72 220.018C198.593 219.361 199.222 218.432 199.51 217.378H109.149Z" fill="#093F68"/>
<path d="M153.343 168.851C153.001 168.851 152.673 168.716 152.432 168.474C152.19 168.232 152.054 167.904 152.054 167.562V144.356C152.054 144.014 152.19 143.686 152.432 143.444C152.673 143.203 153.001 143.067 153.343 143.067C153.685 143.067 154.013 143.203 154.255 143.444C154.497 143.686 154.632 144.014 154.632 144.356V167.562C154.632 167.904 154.497 168.232 154.255 168.474C154.013 168.716 153.685 168.851 153.343 168.851Z" fill="#093F68"/>
<path d="M31.0861 185.031H67.1844V210.48C67.1844 213.623 65.9361 216.636 63.7142 218.858C61.4923 221.08 58.4787 222.328 55.3364 222.328H42.9341C39.7918 222.328 36.7782 221.08 34.5563 218.858C32.3344 216.636 31.0861 213.623 31.0861 210.48V185.031Z" fill="#FFBC0E"/>
<path d="M55.3364 223.618H42.9341C39.4509 223.614 36.1114 222.229 33.6484 219.766C31.1855 217.303 29.8003 213.964 29.7969 210.48V185.031C29.7969 184.689 29.9327 184.361 30.1745 184.12C30.4163 183.878 30.7442 183.742 31.0861 183.742H67.1844C67.5263 183.742 67.8542 183.878 68.096 184.12C68.3378 184.361 68.4736 184.689 68.4736 185.031V210.48C68.4702 213.964 67.085 217.303 64.622 219.766C62.1591 222.229 58.8196 223.614 55.3364 223.618ZM32.3753 186.32V210.48C32.3753 213.281 33.4878 215.966 35.4679 217.947C37.448 219.927 40.1337 221.039 42.9341 221.039H55.3364C58.1357 221.036 60.8194 219.922 62.7988 217.943C64.7782 215.963 65.8917 213.28 65.8951 210.48V186.32H32.3753Z" fill="#093F68"/>
<path d="M224.792 222.329H9.20795C5.02128 222.329 1.62732 225.72 1.62732 229.903C1.62732 234.086 5.02128 237.477 9.20795 237.477H224.792C228.979 237.477 232.373 234.086 232.373 229.903C232.373 225.72 228.979 222.329 224.792 222.329Z" fill="#725858"/>
<path d="M224.792 238.766H9.20796C8.01556 238.811 6.82624 238.616 5.71119 238.191C4.59615 237.766 3.57832 237.12 2.71862 236.293C1.85892 235.465 1.17504 234.473 0.707907 233.375C0.240775 232.277 0 231.096 0 229.903C0 228.709 0.240775 227.528 0.707907 226.43C1.17504 225.332 1.85892 224.34 2.71862 223.512C3.57832 222.685 4.59615 222.039 5.71119 221.614C6.82624 221.189 8.01556 220.994 9.20796 221.039H224.792C225.984 220.994 227.174 221.189 228.289 221.614C229.404 222.039 230.422 222.685 231.281 223.512C232.141 224.34 232.825 225.332 233.292 226.43C233.759 227.528 234 228.709 234 229.903C234 231.096 233.759 232.277 233.292 233.375C232.825 234.473 232.141 235.465 231.281 236.293C230.422 237.12 229.404 237.766 228.289 238.191C227.174 238.616 225.984 238.811 224.792 238.766ZM9.20796 223.618C8.35866 223.579 7.51037 223.713 6.71432 224.012C5.91827 224.31 5.19098 224.767 4.57637 225.354C3.96175 225.942 3.47257 226.648 3.13835 227.429C2.80414 228.211 2.63182 229.052 2.63182 229.903C2.63182 230.753 2.80414 231.594 3.13835 232.376C3.47257 233.158 3.96175 233.863 4.57637 234.451C5.19098 235.038 5.91827 235.495 6.71432 235.793C7.51037 236.092 8.35866 236.226 9.20796 236.188H224.792C225.641 236.226 226.49 236.092 227.286 235.793C228.082 235.495 228.809 235.038 229.424 234.451C230.038 233.863 230.527 233.158 230.862 232.376C231.196 231.594 231.368 230.753 231.368 229.903C231.368 229.052 231.196 228.211 230.862 227.429C230.527 226.648 230.038 225.942 229.424 225.354C228.809 224.767 228.082 224.31 227.286 224.012C226.49 223.713 225.641 223.579 224.792 223.618H9.20796Z" fill="#093F68"/>
<path d="M69.2987 210.932H67.1972C66.8553 210.932 66.5274 210.796 66.2856 210.554C66.0438 210.312 65.908 209.985 65.908 209.643V189.183C65.908 188.841 66.0438 188.513 66.2856 188.271C66.5274 188.029 66.8553 187.893 67.1972 187.893H69.2987C70.9281 187.696 72.5807 187.847 74.1474 188.336C75.7141 188.825 77.1592 189.641 78.3874 190.73C79.6155 191.818 80.5988 193.155 81.2721 194.652C81.9455 196.149 82.2937 197.771 82.2937 199.413C82.2937 201.054 81.9455 202.676 81.2721 204.173C80.5988 205.67 79.6155 207.007 78.3874 208.095C77.1592 209.184 75.7141 210 74.1474 210.489C72.5807 210.978 70.9281 211.129 69.2987 210.932ZM68.4865 208.353H69.2987C70.5618 208.497 71.8412 208.373 73.0528 207.988C74.2645 207.603 75.3811 206.966 76.3296 206.12C77.2781 205.273 78.037 204.236 78.5566 203.075C79.0763 201.915 79.3449 200.658 79.3449 199.387C79.3449 198.115 79.0763 196.858 78.5566 195.698C78.037 194.538 77.2781 193.5 76.3296 192.654C75.3811 191.807 74.2645 191.171 73.0528 190.786C71.8412 190.401 70.5618 190.276 69.2987 190.42H68.4865V208.353Z" fill="#093F68"/>
<path d="M84.7694 71.6697H8.34415C6.56411 71.6697 5.12109 73.1127 5.12109 74.8927V138.155C5.12109 139.935 6.56411 141.378 8.34415 141.378H84.7694C86.5494 141.378 87.9924 139.935 87.9924 138.155V74.8927C87.9924 73.1127 86.5494 71.6697 84.7694 71.6697Z" fill="white"/>
<path d="M84.7694 142.667H8.3313C7.1368 142.664 5.99239 142.187 5.14896 141.341C4.30553 140.495 3.8319 139.349 3.83191 138.155V74.8798C3.83191 73.6864 4.30595 72.542 5.14975 71.6982C5.99355 70.8544 7.13799 70.3804 8.3313 70.3804H84.7694C85.9639 70.3804 87.1097 70.854 87.9555 71.6974C88.8014 72.5409 89.2783 73.6853 89.2817 74.8798V138.155C89.2817 139.352 88.8063 140.499 87.9601 141.346C87.1138 142.192 85.9661 142.667 84.7694 142.667ZM8.3313 72.9846C7.82183 72.9846 7.33323 73.187 6.97299 73.5472C6.61274 73.9075 6.41036 74.3961 6.41036 74.9055V138.181C6.41035 138.691 6.61232 139.181 6.9722 139.544C7.33208 139.906 7.82065 140.111 8.3313 140.115H84.7694C85.2823 140.115 85.7742 139.911 86.1368 139.548C86.4995 139.185 86.7032 138.694 86.7032 138.181V74.8798C86.6931 74.3736 86.4849 73.8916 86.1233 73.5373C85.7617 73.1829 85.2757 72.9845 84.7694 72.9846H8.3313Z" fill="#093F68"/>
<path d="M8.33126 71.6956H84.7694C85.6242 71.6956 86.444 72.0351 87.0484 72.6396C87.6528 73.244 87.9924 74.0638 87.9924 74.9186V80.501H5.12109V74.9186C5.12109 74.066 5.45888 73.2482 6.06054 72.6441C6.6622 72.04 7.47869 71.699 8.33126 71.6956Z" fill="#2A7347"/>
<path d="M87.9925 81.7642H5.12113C4.77921 81.7642 4.45129 81.6284 4.20951 81.3866C3.96774 81.1448 3.83191 80.8169 3.83191 80.475V74.8798C3.83191 73.6864 4.30595 72.542 5.14975 71.6982C5.99355 70.8544 7.13799 70.3804 8.3313 70.3804H84.7694C85.9639 70.3804 87.1097 70.854 87.9555 71.6974C88.8014 72.5409 89.2783 73.6853 89.2817 74.8798V80.475C89.2817 80.8169 89.1459 81.1448 88.9041 81.3866C88.6623 81.6284 88.3344 81.7642 87.9925 81.7642ZM6.41036 79.1858H86.7032V74.8798C86.6931 74.3736 86.4849 73.8916 86.1233 73.5373C85.7617 73.1829 85.2757 72.9845 84.7694 72.9846H8.3313C7.82183 72.9846 7.33323 73.187 6.97299 73.5472C6.61274 73.9075 6.41036 74.3961 6.41036 74.9055V79.1858Z" fill="#093F68"/>
<path d="M11.5543 77.7937C12.5084 77.7937 13.2819 77.0203 13.2819 76.0662C13.2819 75.1121 12.5084 74.3386 11.5543 74.3386C10.6002 74.3386 9.82678 75.1121 9.82678 76.0662C9.82678 77.0203 10.6002 77.7937 11.5543 77.7937Z" fill="#093F68"/>
<path d="M16.3889 77.7937C17.343 77.7937 18.1165 77.0203 18.1165 76.0662C18.1165 75.1121 17.343 74.3386 16.3889 74.3386C15.4348 74.3386 14.6614 75.1121 14.6614 76.0662C14.6614 77.0203 15.4348 77.7937 16.3889 77.7937Z" fill="#093F68"/>
<path d="M21.2364 77.7937C22.1905 77.7937 22.964 77.0203 22.964 76.0662C22.964 75.1121 22.1905 74.3386 21.2364 74.3386C20.2823 74.3386 19.5089 75.1121 19.5089 76.0662C19.5089 77.0203 20.2823 77.7937 21.2364 77.7937Z" fill="#093F68"/>
<path d="M35.8949 104.764L23.9695 110.204V110.295L35.8949 115.735V121.691L16.853 113.015V107.484L35.8949 98.769V104.764Z" fill="#093F68"/>
<path d="M50.0377 90.1702L54.3179 91.7043L43.0372 125.843L38.7828 124.309L50.0377 90.1702Z" fill="#093F68"/>
<path d="M57.2187 115.735L69.144 110.295V110.204L57.2187 104.764V98.769L76.2476 107.446V112.976L57.2187 121.653V115.735Z" fill="#093F68"/>
</svg>
