<svg width="18" height="18" viewBox="0 0 18 18" fill="none" xmlns="http://www.w3.org/2000/svg">
<path d="M17.0703 3.59516H13.1954V0H4.79594V3.59516H0.929699C0.683218 3.59547 0.446925 3.69358 0.27264 3.86796C0.0983557 4.04233 0.000307896 4.27875 0 4.52535V17.0698C0.000317826 17.3164 0.09837 17.5528 0.272653 17.7272C0.446937 17.9016 0.683225 17.9997 0.929699 18H17.0703C17.3168 17.9997 17.5531 17.9016 17.7273 17.7272C17.9016 17.5528 17.9997 17.3164 18 17.0698V4.52535C17.9997 4.27875 17.9016 4.04233 17.7274 3.86796C17.5531 3.69358 17.3168 3.59547 17.0703 3.59516ZM5.9971 1.20175H11.9942V3.59516H5.9971V1.20175ZM16.7412 4.85467V7.86979L14.7451 9.8668H9.62941V8.11183H8.37059V9.8668H3.25488L1.25882 7.86979V4.85467H16.7412ZM1.25882 16.7406V9.6509L2.73347 11.1263H8.37059V12.9001H9.62941V11.1263H15.2665L16.7412 9.6509V16.7406H1.25882Z" fill="black"/>
</svg>
